<?xml version="1.0" encoding="UTF-8" standalone="no"?>
<svg
   viewBox="0 0 181.02 209"
   width="362"
   height="418"
   version="1.1"
   id="svg14"
   sodipodi:docname="tesouror_logo.svg"
   inkscape:version="1.4 (e7c3feb1, 2024-10-09)"
   xmlns:inkscape="http://www.inkscape.org/namespaces/inkscape"
   xmlns:sodipodi="http://sodipodi.sourceforge.net/DTD/sodipodi-0.dtd"
   xmlns="http://www.w3.org/2000/svg"
   xmlns:svg="http://www.w3.org/2000/svg">
  <sodipodi:namedview
     id="namedview14"
     pagecolor="#ffffff"
     bordercolor="#000000"
     borderopacity="0.25"
     inkscape:showpageshadow="2"
     inkscape:pageopacity="0.0"
     inkscape:pagecheckerboard="0"
     inkscape:deskcolor="#d1d1d1"
     inkscape:zoom="1.407447"
     inkscape:cx="180.46861"
     inkscape:cy="206.40209"
     inkscape:window-width="1632"
     inkscape:window-height="850"
     inkscape:window-x="55"
     inkscape:window-y="31"
     inkscape:window-maximized="0"
     inkscape:current-layer="svg14" />
  <defs
     id="defs6">
    <linearGradient
       id="bg"
       x1="0"
       y1="0"
       x2="0.3"
       y2="1">
      <stop
         offset="0%"
         stop-color="#1a3a4a"
         id="stop1" />
      <stop
         offset="50%"
         stop-color="#0f2b3c"
         id="stop2" />
      <stop
         offset="100%"
         stop-color="#0a1e2e"
         id="stop3" />
    </linearGradient>
    <linearGradient
       id="stroke-grad"
       x1="0"
       y1="0"
       x2="1"
       y2="1">
      <stop
         offset="0%"
         stop-color="#e7ab36"
         id="stop4" />
      <stop
         offset="50%"
         stop-color="#d4993a"
         id="stop5" />
      <stop
         offset="100%"
         stop-color="#43853f"
         id="stop6" />
    </linearGradient>
    <clipPath
       id="hex-clip">
      <polygon
         points="90.51,3 177.02,52.25 177.02,156.75 90.51,206 4,156.75 4,52.25"
         id="polygon6" />
    </clipPath>
  </defs>
  <!-- Hex background with gradient -->
  <polygon
     points="90.51,3 177.02,52.25 177.02,156.75 90.51,206 4,156.75 4,52.25"
     fill="url(#bg)"
     id="polygon7" />
  <!-- Hex border -->
  <polygon
     points="90.51,3 177.02,52.25 177.02,156.75 90.51,206 4,156.75 4,52.25"
     fill="none"
     stroke="url(#stroke-grad)"
     stroke-width="3.5"
     stroke-linejoin="round"
     id="polygon8" />
  <!-- Tesouro logo, scaled and centered -->
  <g
     transform="translate(46, 48) scale(2.05)"
     clip-path="none"
     id="g13">
    <!-- Green curve (right) -->
    <path
       fill="#43853f"
       fill-opacity="1"
       d="m 31.885695,0.112505 h -2.179687 c -11.8125,10.765625 -1.777344,21.648437 5.847656,34.761715 h 2.179687 C 27.698195,14.370318 26.264601,7.385942 31.885695,0.112505"
       id="path8" />
    <path
       fill="none"
       stroke="#43853f"
       stroke-width="0.225153"
       stroke-linecap="butt"
       stroke-linejoin="miter"
       stroke-miterlimit="2.6131"
       d="M 31.885695,0.11250394 H 29.706008 C 17.893507,10.878133 27.928664,21.760943 35.553664,34.874224 h 2.179688 C 27.698195,14.374222 26.264601,7.3859404 31.885695,0.11250394 Z"
       id="path9" />
    <!-- White curve (center) -->
    <path
       fill="#ffffff"
       fill-opacity="0.95"
       d="m 43.409132,12.94063 v 2.175781 C 29.877882,3.206255 0.06147624,18.495318 0.06147624,18.495318 c 0,0 30.90624976,-20.101563 43.34765576,-5.554688"
       id="path10" />
    <path
       fill="#ffffff"
       fill-opacity="0.95"
       stroke="#ffffff"
       stroke-width="0.225153"
       stroke-linecap="butt"
       stroke-linejoin="miter"
       stroke-miterlimit="2.6131"
       d="M 43.413039,12.940633 V 15.11641 C 29.877882,3.2062548 0.06147649,18.495318 0.06147649,18.495318 c 0,0 30.90624951,-20.1015679 43.35156251,-5.554685 z"
       id="path11" />
    <!-- Gold curve (left) -->
    <path
       fill="#e7ab36"
       fill-opacity="1"
       d="m 15.944289,0.112505 h 2.179687 c 11.8125,10.765625 1.835938,21.648437 -5.792968,34.761715 H 10.15132 C 20.131789,14.370318 21.565382,7.385942 15.944289,0.112505"
       id="path12" />
    <path
       fill="#e7ab36"
       fill-opacity="1"
       stroke="#e7ab36"
       stroke-width="0.225153"
       stroke-linecap="butt"
       stroke-linejoin="miter"
       stroke-miterlimit="2.6131"
       d="m 15.944289,0.11250394 h 2.179687 C 29.936476,10.878133 19.959914,21.760943 12.331007,34.874224 H 10.15132 C 20.131789,14.374222 21.565383,7.3859404 15.944289,0.11250394 Z"
       id="path13" />
  </g>
  <!-- Package name -->
  <text
     x="90.510002"
     y="155"
     font-family="'Segoe UI', 'Helvetica Neue', Arial, sans-serif"
     font-size="28px"
     font-weight="600"
     letter-spacing="2.5"
     fill="#ffffff"
     text-anchor="middle"
     id="text13">tesouro</text>
  <!-- Subtle tagline -->
  <text
     x="90.510002"
     y="168"
     font-family="'Segoe UI', 'Helvetica Neue', Arial, sans-serif"
     font-size="9.5px"
     font-weight="300"
     letter-spacing="1.2"
     fill="#8ab4c8"
     fill-opacity="0.7"
     text-anchor="middle"
     id="text14">API for R</text>
</svg>
